<?xml version="1.0" encoding="UTF-8"?>
<svg id="Layer_1" data-name="Layer 1" xmlns="http://www.w3.org/2000/svg" xmlns:xlink="http://www.w3.org/1999/xlink" viewBox="0 0 185.16 202.38">
  <defs>
    <style>
      .cls-1 {
        fill: #fff;
      }

      .cls-2 {
        fill: url(#linear-gradient);
      }
    </style>
    <linearGradient id="linear-gradient" x1="92.78" y1="0" x2="92.78" y2="140" gradientUnits="userSpaceOnUse">
      <stop offset="0" stop-color="#82c041"/>
      <stop offset=".5" stop-color="#38b34a"/>
      <stop offset="1" stop-color="#046938"/>
    </linearGradient>
  </defs>
  <path class="cls-2" d="M174.61,97.51l-.06-1.45c-.02-.69-.07-1.38-.11-2.05-.02-.29-.04-.58-.06-.89-.2-2.29-.43-4.15-.7-5.87-.33-2-.75-3.95-1.23-5.81-.48-1.83-1.06-3.67-1.75-5.65-1.4-3.88-3.04-7.59-4.47-10.71-1.56-3.34-3.29-6.7-5.3-10.28-2.13-3.76-4.06-6.99-5.91-9.89-4.37-6.86-9.06-13.05-13.95-18.4-5.71-6.29-11.38-11.36-17.31-15.51-7.08-4.95-14.28-8.27-21.39-9.89-3.28-.74-6.6-1.11-9.89-1.11-.69,0-1.39,.01-2.08,.05-4,.21-7.96,.95-11.78,2.18-6.86,2.21-13.76,6.08-20.51,11.51-5.6,4.52-10.92,9.93-16.28,16.54-5.18,6.41-9.57,12.55-13.43,18.78-1.01,1.64-2,3.31-2.95,4.97-.95,1.69-1.88,3.41-2.75,5.09-.72,1.4-1.67,3.28-2.56,5.26l-1.15,2.59-1.17,2.6c-.89,1.99-1.63,3.76-2.26,5.4-.63,1.64-1.22,3.44-1.86,5.64-1.07,3.83-1.83,7.74-2.28,11.62-.03,.33-.07,.66-.11,1-.07,.64-.13,1.28-.19,1.94-.01,.32-.04,.63-.06,.95-.05,.66-.1,1.36-.1,2.04l-.04,1.51,.03,1.49c0,.69,.05,1.39,.1,2.06,.02,.32,.05,.64,.07,.98,.25,2.44,.54,4.3,.94,6.01,.54,2.28,1.1,4.15,1.78,5.86,2.9,7.66,8.58,14.43,15.56,18.58,3.56,2.14,7.39,3.65,11.39,4.51,1.91,.4,3.88,.66,6.05,.79,.71,.04,1.42,.06,2.11,.06,1.39,0,2.75-.08,4.04-.24,4.19-.51,8.24-1.84,11.73-3.86,3.48-1.99,6.61-4.66,9.3-7.96,1.28-1.56,2.44-3.24,3.47-5.02l.37-.66c.12-.22,.27-.52,.4-.78,.24-.51,.45-1.02,.63-1.51,.33-.91,.63-1.87,.92-2.95,.98-3.83,1.49-7.83,1.49-11.89-.04-4.79-.76-8.63-2.28-12.07-.39-.9-.9-1.83-1.56-2.86-.67-.98-1.38-1.84-2.08-2.55-1.38-1.4-2.97-2.66-4.86-3.87-3.66-2.31-7.5-3.82-11.4-4.49-1.07-.18-2.13-.28-3.15-.3-.17,0-.33,0-.5,0-.81,0-1.71,.06-2.67,.17-2.06,.22-4.1,.68-6.05,1.35-1.07,.37-2.03,.77-2.9,1.23-.81,.4-1.62,.87-2.43,1.42,.53-1.5,1.14-3.19,1.82-4.86,.76-1.97,1.56-3.86,2.37-5.61,.75-1.63,1.66-3.53,2.74-5.27,.99-1.63,2.14-3.28,3.42-4.91,1.08-1.4,2.33-2.85,3.94-4.57,1.38-1.43,2.84-2.83,4.36-4.17,1.61-1.4,3.14-2.63,4.69-3.75,1.64-1.17,3.34-2.25,5.04-3.22,7.06-4.03,14.73-6.15,22.19-6.15h.08c.45,0,.89,.02,1.33,.02,1.51,.02,2.94,.05,4.4,.21,1.88,.2,3.76,.55,5.6,1.07,3.63,.99,7.22,2.56,10.66,4.66,6.31,3.83,12.2,9.33,17.52,16.34,2.46,3.25,4.66,6.69,6.54,10.22,1.87,3.58,3.44,7.32,4.65,11.12,.62,1.97,1.12,3.89,1.5,5.76-.23-.25-.48-.5-.73-.74-1.52-1.45-3.29-2.68-5.24-3.66-3.32-1.65-7.07-2.52-10.85-2.52-.46,0-.93,0-1.4,.04-2.14,.12-4.23,.53-6.21,1.19-1.04,.36-1.98,.73-2.87,1.15-1.01,.46-1.91,.94-2.76,1.47-1.87,1.14-3.52,2.49-4.91,4.04-1.44,1.6-2.62,3.42-3.48,5.4-1.55,3.55-2.18,7.67-1.85,12.28,.29,3.86,1.18,7.81,2.65,11.74,.38,1.01,.8,1.97,1.24,2.84,.45,.89,.97,1.8,1.54,2.69,1.11,1.75,2.42,3.38,3.87,4.85,1.46,1.48,3.11,2.79,4.89,3.91,1.88,1.15,3.79,2.04,5.69,2.66,1.93,.63,3.98,1.07,6.1,1.3,.34,.04,.69,.07,1.03,.09,.17,0,.34,.02,.52,.04,.34,.02,.68,.03,1.02,.04h.53s.22,.02,.22,.02c.27,0,.53,0,.8,0h.51c.33-.02,.66-.03,.98-.05l.52-.02c4.2-.25,8.19-.98,11.85-2.19,3.99-1.31,7.66-3.21,10.88-5.61,3.27-2.43,6.13-5.43,8.49-8.91,2.23-3.27,4.01-6.97,5.29-10.99,.62-1.92,1.1-3.91,1.44-5.92,.37-2.17,.56-4.17,.6-6.1,0-.47,0-.97,0-1.56Zm-6.1,1.39c-.12,3.34-.74,6.81-1.83,10.31-1.06,3.36-2.57,6.53-4.49,9.44-1.94,2.91-4.3,5.46-7.01,7.58-2.68,2.08-5.75,3.74-9.12,4.93-3.21,1.13-6.7,1.85-10.38,2.15l-.5,.03c-.28,.02-.57,.04-.84,.06-.17,0-.33,.01-.5,.02-.27,0-.54,.02-.8,.02h-.49c-.27,0-.54,0-.8-.01-.17,0-.33-.01-.5-.02-.27-.01-.54-.02-.81-.05-1.71-.14-3.39-.46-5-.97-1.51-.46-3.07-1.16-4.6-2.07-1.46-.88-2.81-1.93-4.01-3.11-2.46-2.4-4.4-5.36-5.6-8.54-1.32-3.48-2.13-6.96-2.4-10.33-.29-3.81,.18-7.17,1.4-9.99,.65-1.51,1.53-2.9,2.62-4.11,1.03-1.16,2.32-2.21,3.84-3.13,1.37-.84,2.94-1.55,4.66-2.13,1.57-.53,3.23-.84,4.93-.93,.34-.02,.68-.03,1.03-.03,3.07,0,6.09,.71,8.74,2.04,1.51,.76,2.87,1.72,4.03,2.84,1.18,1.12,2.12,2.42,2.78,3.87,.65,1.44,1.08,3.01,1.26,4.65,.2,1.69,.16,3.29-.11,4.75-.04,.22-.09,.45-.14,.67-.04,.12-.08,.24-.12,.37l-.02,.05c-.04,.13-.09,.32-.11,.44-.31,.98-.74,1.87-1.26,2.65-.8,1.19-1.88,2.15-3.1,2.75-1.22,.6-2.63,.91-4.23,.91-.71,0-1.41-.06-2.37-.2-.93-.14-1.66-.31-2.24-.51-.63-.22-1.13-.49-1.58-.86-.43-.34-.84-.82-1.25-1.45l-.3-.48-.29-.53c-.11-.2-.22-.48-.3-.78-.18-.61-.29-1.34-.31-2.06,0-.34,0-.68,.04-.96l.03-.21,.06-.29c.04-.19,.08-.38,.12-.56,.18-.73,.43-1.38,.72-1.83,.15-.26,.3-.4,.35-.45,.04-.03,.06-.05,.06-.06,.02,0,.04,0,.08,.01,.1,.01,.29,.08,.51,.2,.42,.23,.9,.36,1.38,.36,1.04,0,2-.56,2.51-1.48,.37-.67,.46-1.44,.25-2.18-.21-.74-.7-1.35-1.37-1.72-.71-.39-1.4-.66-2.11-.81-.42-.09-.85-.13-1.28-.13-.51,0-1.01,.06-1.47,.19-.86,.22-1.71,.69-2.4,1.3-.55,.49-1.02,1.06-1.44,1.74-.61,1-1.05,2.05-1.41,3.41-.07,.28-.13,.55-.2,.83l-.09,.42-.08,.49c-.08,.59-.11,1.2-.1,1.86,.03,1.23,.21,2.39,.54,3.55,.21,.7,.44,1.29,.74,1.86l.4,.72c.1,.17,.21,.34,.32,.52l.13,.22c.75,1.15,1.55,2.07,2.46,2.8,.96,.79,2.13,1.43,3.38,1.86,1.21,.41,2.34,.62,3.29,.76,1.14,.17,2.14,.25,3.04,.25h.23c2.44-.02,4.78-.56,6.77-1.57,2.08-1.05,3.96-2.73,5.27-4.73,.83-1.26,1.48-2.65,1.94-4.17,.06-.13,.11-.26,.15-.4,.64-2.07,1.08-4.34,1.3-6.73,.19-2.14,.19-4.34,0-6.73-.33-4.08-1.23-8.28-2.75-12.85-2.55-7.58-6.67-15.2-12.24-22.66-2.68-3.6-5.49-6.9-8.37-9.8-3.35-3.39-6.61-6.16-9.95-8.45-3.91-2.69-7.91-4.73-11.88-6.07-2.15-.73-4.37-1.29-6.6-1.65-1-.17-2.08-.3-3.42-.41h-.06c-.43-.03-.86-.06-1.3-.06-.13,0-.25,0-.36,0-.6,0-1.19,.03-1.7,.05-4.51,.22-8.94,1.06-13.18,2.5-3.99,1.35-8,3.28-11.91,5.74-1.81,1.14-3.61,2.41-5.35,3.77-1.66,1.28-3.33,2.69-4.97,4.19-1.57,1.46-3.11,3-4.56,4.6-1.29,1.37-2.62,2.93-4.22,4.91-.65,.82-1.32,1.69-1.97,2.58-.71,.96-1.33,1.83-1.88,2.68-.58,.87-1.16,1.83-1.72,2.85-.48,.86-.98,1.8-1.51,2.87-.94,1.86-1.83,3.76-2.71,5.83-.97,2.32-1.7,4.23-2.3,6.01-1.54,4.47-2.57,8.59-3.16,12.61-.24,1.76-.37,3.32-.4,4.77,0,.06,0,.11-.01,.17-.28,4.33,.75,8.74,2.9,12.42,1.11,1.91,2.54,3.61,4.24,5.05,1.72,1.43,3.72,2.57,5.79,3.28,2.01,.7,4.19,1.07,6.46,1.09h.24c1.04,0,2.15-.11,3.19-.33,1.07-.23,2.14-.55,3.18-.97,.54-.21,1.04-.44,1.55-.7,.25-.13,.52-.27,.82-.46,.15-.09,.4-.27,.54-.38l.34-.29c.89-.75,1.7-1.63,2.41-2.65,1.31-1.92,2.19-4.06,2.6-6.35,.21-1.18,.28-2.35,.21-3.49-.02-.53-.09-1.08-.22-1.8-.13-.64-.32-1.27-.57-1.88-.46-1.12-1.13-2.2-1.99-3.19-.77-.88-1.64-1.66-2.67-2.37-.57-.39-1.07-.67-1.6-.93-.15-.08-.32-.15-.52-.23l-.06-.02c-.1-.04-.2-.07-.36-.12l-.24-.06c-.27-.07-.55-.14-.84-.2-.96-.19-1.77-.28-2.58-.28-.38,0-.77,.02-1.14,.06-1.48,.15-2.96,.75-4.07,1.64-1.05,.84-1.89,1.96-2.5,3.34-.31,.7-.33,1.48-.06,2.19,.27,.71,.81,1.28,1.51,1.59,.37,.16,.76,.25,1.17,.25,1.13,0,2.16-.67,2.62-1.71,.24-.53,.53-.94,.83-1.18,.32-.24,.67-.38,1.15-.43,.14-.02,.3-.03,.47-.03,.43,0,.91,.06,1.45,.17,.18,.04,.36,.08,.54,.12h.05s.11,.06,.11,.06c.24,.11,.55,.3,.85,.5,1.2,.82,2.15,1.91,2.58,2.99,.11,.27,.2,.55,.25,.82,.05,.3,.11,.67,.13,1.03,.04,.69,0,1.42-.12,2.16-.25,1.45-.82,2.87-1.65,4.09-.42,.6-.89,1.12-1.4,1.55l-.17,.15-.03,.02-.05,.03c-.1,.06-.25,.15-.39,.22-.33,.17-.69,.33-1.04,.47-1.56,.62-3.02,.93-4.35,.93h-.11c-1.67,0-3.24-.25-4.69-.74-1.47-.49-2.83-1.25-4.06-2.25-1.22-1.02-2.26-2.23-3.06-3.58-.84-1.4-1.45-2.91-1.82-4.49-.4-1.63-.57-3.27-.5-4.89,0-.08,0-.16,0-.24,.09-.96,.21-1.96,.4-3.02,.48-2.18,1.39-4.22,2.65-5.92,1.86-2.55,4.62-4.51,7.96-5.67,1.61-.55,3.3-.93,5.01-1.11,.83-.1,1.48-.13,2.11-.13,.13,0,.26,0,.39,0,.8,.02,1.64,.1,2.49,.24,3.22,.54,6.53,1.86,9.59,3.8,1.56,.99,2.91,2.06,4.01,3.18,.51,.52,.97,1.09,1.49,1.84,.5,.81,.87,1.49,1.15,2.15,1.18,2.73,1.79,6.13,1.78,10.11-.03,3.62-.5,7.19-1.41,10.59-.24,.9-.51,1.73-.78,2.47-.13,.36-.29,.72-.46,1.09l-.04,.08c-.07,.14-.13,.26-.22,.42l-.33,.57c-.88,1.51-1.91,2.95-3.03,4.29-2.32,2.77-4.99,5.01-7.94,6.64-2.99,1.67-6.26,2.7-9.74,3.06-.95,.1-1.92,.15-2.91,.15-2.39,0-4.91-.29-7.46-.85-3.38-.78-6.6-2.12-9.58-3.97-3-1.86-5.6-4.16-7.75-6.83-1.11-1.38-2.09-2.81-2.93-4.27-.83-1.47-1.57-3.06-2.2-4.71-.55-1.43-1.02-3.02-1.47-5.01-.41-1.84-.62-3.76-.76-5.19-.01-.31-.03-.61-.05-.92-.03-.57-.07-1.16-.07-1.74l-.02-1.32,.04-1.36c0-.57,.05-1.17,.1-1.75,.02-.31,.04-.61,.06-.91,.05-.57,.11-1.15,.18-1.73,.03-.33,.07-.66,.11-.99,.45-3.7,1.15-7.29,2.08-10.66,.9-3.23,2.12-6.59,3.72-10.26l1.13-2.6,1.12-2.61c.62-1.43,1.37-3.01,2.35-4.98,.79-1.57,1.63-3.18,2.59-4.94,.87-1.62,1.79-3.26,2.72-4.88,4.33-7.51,8.28-13.4,12.41-18.54,5.11-6.34,10.18-11.51,15.48-15.82,6.2-5.04,12.55-8.6,18.88-10.62,3.4-1.09,6.93-1.74,10.49-1.93,.58-.02,1.18-.04,1.76-.04,2.93,0,5.91,.33,8.83,.99,6.46,1.47,13.05,4.54,19.57,9.12,5.61,3.93,10.99,8.77,16.43,14.77,4.87,5.42,9.49,11.34,13.73,17.59,4.2,6.18,7.83,12.75,10.77,19.52,.72,1.69,1.42,3.43,2.09,5.17,.74,1.99,1.31,3.65,1.8,5.23,.55,1.78,1.02,3.55,1.4,5.27,.37,1.7,.68,3.5,.92,5.34,.2,1.57,.34,3.29,.45,5.42,0,.31,.02,.62,.03,.93,.02,.59,.05,1.21,.06,1.82l.02,1.37c0,.43,0,.86-.02,1.29Z"/>
  <g>
    <path class="cls-1" d="M15.05,157.48v3.97H6.76v4.29h6.21v3.86H6.76v8.24H1.8v-20.36H15.05Z"/>
    <path class="cls-1" d="M22.53,157.48v12.18c0,1.22,.3,2.16,.9,2.81,.6,.66,1.48,.99,2.64,.99s2.05-.33,2.67-.99c.62-.66,.93-1.59,.93-2.81v-12.18h4.96v12.15c0,1.82-.39,3.35-1.16,4.61-.77,1.26-1.81,2.2-3.12,2.84-1.3,.64-2.76,.96-4.36,.96s-3.04-.31-4.31-.94c-1.27-.63-2.27-1.58-3-2.84-.73-1.27-1.1-2.81-1.1-4.63v-12.15h4.96Z"/>
    <path class="cls-1" d="M56.32,177.84h-4.96l-8.29-12.56v12.56h-4.96v-20.36h4.96l8.29,12.62v-12.62h4.96v20.36Z"/>
    <path class="cls-1" d="M73.43,163.92c-.37-.68-.89-1.19-1.58-1.55-.69-.36-1.49-.54-2.42-.54-1.6,0-2.89,.53-3.86,1.58-.97,1.05-1.45,2.46-1.45,4.22,0,1.88,.51,3.34,1.52,4.39,1.02,1.05,2.41,1.58,4.19,1.58,1.22,0,2.25-.31,3.09-.93,.84-.62,1.45-1.51,1.84-2.67h-6.29v-3.65h10.79v4.61c-.37,1.24-.99,2.39-1.87,3.45-.88,1.06-2,1.92-3.35,2.58-1.35,.66-2.88,.99-4.58,.99-2.01,0-3.8-.44-5.38-1.32-1.58-.88-2.8-2.1-3.68-3.67-.88-1.57-1.32-3.35-1.32-5.37s.44-3.8,1.32-5.38c.88-1.58,2.1-2.8,3.67-3.68,1.57-.88,3.35-1.32,5.37-1.32,2.44,0,4.49,.59,6.16,1.77,1.67,1.18,2.78,2.81,3.32,4.9h-5.48Z"/>
    <path class="cls-1" d="M86.97,157.48v20.36h-4.96v-20.36h4.96Z"/>
    <path class="cls-1" d="M109.68,157.48l-7.22,20.36h-6.21l-7.22-20.36h5.28l5.05,15.37,5.08-15.37h5.25Z"/>
    <path class="cls-1" d="M116.69,161.45v4.12h6.64v3.83h-6.64v4.47h7.51v3.97h-12.47v-20.36h12.47v3.97h-7.51Z"/>
    <path class="cls-1" d="M137.81,177.84l-4.23-7.68h-1.19v7.68h-4.96v-20.36h8.32c1.6,0,2.97,.28,4.1,.84s1.98,1.33,2.54,2.3c.56,.98,.84,2.06,.84,3.26,0,1.35-.38,2.56-1.15,3.62-.76,1.06-1.89,1.82-3.38,2.26l4.7,8.06h-5.6Zm-5.42-11.19h3.07c.91,0,1.59-.22,2.04-.67,.45-.44,.68-1.07,.68-1.88s-.23-1.38-.68-1.83c-.46-.44-1.14-.67-2.04-.67h-3.07v5.05Z"/>
    <path class="cls-1" d="M149.7,177.31c-1.18-.48-2.12-1.2-2.83-2.15-.71-.95-1.08-2.09-1.12-3.42h5.28c.08,.75,.34,1.33,.78,1.73,.44,.4,1.02,.59,1.74,.59s1.32-.17,1.74-.51,.64-.81,.64-1.41c0-.5-.17-.92-.51-1.25-.34-.33-.75-.6-1.25-.81-.49-.21-1.19-.45-2.1-.72-1.32-.41-2.39-.81-3.22-1.22-.83-.41-1.55-1.01-2.15-1.8-.6-.79-.9-1.83-.9-3.1,0-1.89,.69-3.38,2.06-4.45,1.37-1.07,3.16-1.61,5.37-1.61s4.05,.54,5.42,1.61c1.37,1.07,2.11,2.57,2.2,4.48h-5.37c-.04-.66-.28-1.17-.72-1.55-.45-.38-1.02-.57-1.71-.57-.6,0-1.08,.16-1.45,.48-.37,.32-.55,.78-.55,1.38,0,.66,.31,1.17,.93,1.54,.62,.37,1.58,.76,2.9,1.19,1.32,.44,2.38,.87,3.21,1.28,.82,.41,1.53,1,2.13,1.77,.6,.77,.9,1.77,.9,2.99s-.29,2.21-.88,3.16c-.59,.95-1.45,1.7-2.57,2.26s-2.45,.84-3.97,.84-2.82-.24-4-.73Z"/>
    <path class="cls-1" d="M168.53,176.7c-1.59-.89-2.86-2.13-3.8-3.73s-1.41-3.39-1.41-5.38,.47-3.78,1.41-5.36c.94-1.59,2.2-2.82,3.8-3.71,1.6-.89,3.35-1.33,5.26-1.33s3.67,.45,5.26,1.33c1.59,.89,2.85,2.13,3.77,3.71,.92,1.58,1.38,3.37,1.38,5.36s-.46,3.79-1.39,5.38c-.93,1.59-2.19,2.84-3.77,3.73s-3.33,1.33-5.25,1.33-3.67-.44-5.26-1.33Zm9.16-4.81c.98-1.08,1.46-2.51,1.46-4.29s-.49-3.23-1.46-4.31c-.98-1.07-2.28-1.61-3.9-1.61s-2.95,.53-3.93,1.6-1.46,2.5-1.46,4.32,.49,3.23,1.46,4.31,2.29,1.61,3.93,1.61,2.92-.54,3.9-1.62Z"/>
    <path class="cls-1" d="M3.64,185.33l-.73,4.13h3.92l-.1,.5H2.83l-.74,4.16H6.43l-.1,.52H1.36l1.75-9.83h4.96l-.1,.52H3.64Z"/>
    <path class="cls-1" d="M10.95,193.89l3.99-6.86h.69l-4.49,7.6h-.66l-1.79-7.6h.67l1.6,6.86Z"/>
    <path class="cls-1" d="M16.74,193.92c-.57-.55-.86-1.3-.86-2.24,0-.86,.19-1.65,.58-2.38s.93-1.3,1.62-1.73c.69-.42,1.46-.64,2.31-.64,.62,0,1.16,.12,1.64,.37s.85,.6,1.11,1.06c.27,.46,.4,1.01,.4,1.63,0,.86-.2,1.65-.59,2.38-.39,.73-.93,1.3-1.62,1.73-.69,.42-1.45,.64-2.3,.64-.95,0-1.71-.28-2.29-.83Zm4.33-.29c.57-.38,1.02-.89,1.34-1.53,.32-.63,.48-1.33,.48-2.07,0-.83-.25-1.46-.74-1.9s-1.12-.66-1.86-.66-1.39,.19-1.96,.57-1.01,.89-1.33,1.53c-.32,.64-.48,1.33-.48,2.06,0,.83,.25,1.47,.73,1.9,.49,.44,1.11,.66,1.85,.66s1.38-.19,1.95-.57Z"/>
    <path class="cls-1" d="M27.16,184.27l-1.83,10.36h-.63l1.83-10.36h.63Z"/>
    <path class="cls-1" d="M35.41,187.03l-1.34,7.6h-.63l.29-1.64c-.32,.57-.75,1.01-1.3,1.31-.55,.3-1.15,.46-1.79,.46-.77,0-1.4-.21-1.87-.62s-.71-1.03-.71-1.85c0-.31,.02-.58,.07-.83l.8-4.42h.62l-.78,4.38c-.05,.3-.07,.54-.07,.73,0,.68,.19,1.2,.56,1.55,.37,.35,.9,.53,1.57,.53,.82,0,1.52-.26,2.11-.79,.58-.53,.96-1.3,1.13-2.32v.04l.73-4.12h.63Z"/>
    <path class="cls-1" d="M37.48,188.76c.42-.59,.94-1.04,1.55-1.35,.61-.31,1.27-.47,1.98-.47,.95,0,1.69,.24,2.22,.71,.53,.48,.8,1.12,.8,1.92h-.66c0-.64-.24-1.15-.68-1.53s-1.04-.57-1.78-.57c-.55,0-1.08,.12-1.58,.37-.5,.25-.94,.62-1.3,1.13-.36,.51-.61,1.13-.74,1.86-.06,.29-.08,.57-.08,.84,0,.82,.24,1.45,.71,1.88s1.08,.65,1.81,.65,1.41-.19,1.98-.56c.57-.37,.98-.89,1.22-1.54h.67c-.3,.8-.8,1.44-1.5,1.92-.7,.48-1.53,.72-2.48,.72s-1.68-.27-2.23-.81c-.56-.54-.83-1.27-.83-2.21,0-.29,.03-.59,.08-.91,.14-.79,.42-1.48,.84-2.07Z"/>
    <path class="cls-1" d="M47.04,187.03l-1.36,7.6h-.63l1.36-7.6h.63Zm-.35-1.81c-.08-.08-.13-.18-.13-.32,0-.19,.06-.34,.2-.47s.28-.19,.45-.19c.13,0,.24,.04,.33,.13,.09,.08,.13,.19,.13,.32,0,.19-.07,.34-.2,.46-.14,.12-.29,.18-.46,.18-.13,0-.24-.04-.32-.12Z"/>
    <path class="cls-1" d="M49.06,193.92c-.57-.55-.86-1.3-.86-2.24,0-.86,.19-1.65,.58-2.38s.93-1.3,1.62-1.73c.69-.42,1.46-.64,2.31-.64,.62,0,1.16,.12,1.64,.37s.85,.6,1.11,1.06c.27,.46,.4,1.01,.4,1.63,0,.86-.2,1.65-.59,2.38-.39,.73-.93,1.3-1.62,1.73-.69,.42-1.45,.64-2.3,.64-.95,0-1.71-.28-2.29-.83Zm4.33-.29c.57-.38,1.02-.89,1.34-1.53,.32-.63,.48-1.33,.48-2.07,0-.83-.25-1.46-.74-1.9s-1.12-.66-1.86-.66-1.39,.19-1.96,.57-1.01,.89-1.33,1.53c-.32,.64-.48,1.33-.48,2.06,0,.83,.25,1.47,.73,1.9,.49,.44,1.11,.66,1.85,.66s1.38-.19,1.95-.57Z"/>
    <path class="cls-1" d="M63.69,187.5c.47,.42,.7,1.03,.7,1.84,0,.25-.03,.53-.08,.84l-.78,4.45h-.62l.78-4.41c.05-.3,.07-.55,.07-.74,0-.67-.19-1.18-.56-1.53-.37-.35-.9-.53-1.57-.53-.78,0-1.46,.24-2.03,.73-.57,.49-.96,1.2-1.18,2.14l-.77,4.34h-.63l1.36-7.6h.63l-.28,1.6c.32-.57,.75-1,1.29-1.3,.55-.3,1.15-.45,1.8-.45,.77,0,1.4,.21,1.86,.62Z"/>
    <path class="cls-1" d="M66.86,188.77c.42-.59,.93-1.04,1.55-1.36,.62-.32,1.28-.48,1.99-.48,.79,0,1.44,.2,1.93,.59,.49,.39,.8,.89,.92,1.5l.35-1.99h.63l-1.36,7.6h-.62l.35-2c-.33,.62-.81,1.12-1.44,1.52-.64,.4-1.35,.6-2.16,.6-.92,0-1.66-.27-2.22-.82-.56-.55-.83-1.29-.83-2.22,0-.28,.03-.57,.08-.88,.14-.78,.42-1.47,.83-2.06Zm6.12,1.32c0-.79-.24-1.43-.71-1.9-.48-.47-1.11-.71-1.89-.71-.62,0-1.18,.13-1.7,.4-.52,.27-.95,.65-1.3,1.16-.35,.5-.59,1.1-.71,1.79-.05,.31-.07,.57-.07,.78,0,.81,.23,1.44,.69,1.9,.46,.45,1.09,.68,1.9,.68,.59,0,1.15-.14,1.67-.41,.53-.27,.97-.67,1.33-1.18,.36-.51,.6-1.1,.72-1.77,.05-.28,.07-.53,.07-.74Z"/>
    <path class="cls-1" d="M80.39,188.76c.42-.59,.94-1.04,1.55-1.35,.61-.31,1.27-.47,1.98-.47,.95,0,1.69,.24,2.22,.71,.53,.48,.8,1.12,.8,1.92h-.66c0-.64-.24-1.15-.68-1.53s-1.04-.57-1.78-.57c-.55,0-1.08,.12-1.58,.37-.5,.25-.94,.62-1.3,1.13-.36,.51-.61,1.13-.74,1.86-.06,.29-.08,.57-.08,.84,0,.82,.24,1.45,.71,1.88s1.08,.65,1.81,.65,1.41-.19,1.98-.56c.57-.37,.98-.89,1.22-1.54h.67c-.3,.8-.8,1.44-1.5,1.92-.7,.48-1.53,.72-2.48,.72s-1.68-.27-2.23-.81c-.56-.54-.83-1.27-.83-2.21,0-.29,.03-.59,.08-.91,.14-.79,.42-1.48,.84-2.07Z"/>
    <path class="cls-1" d="M89.03,193.92c-.57-.55-.86-1.3-.86-2.24,0-.86,.19-1.65,.58-2.38s.93-1.3,1.62-1.73c.69-.42,1.46-.64,2.31-.64,.62,0,1.16,.12,1.64,.37s.85,.6,1.11,1.06c.27,.46,.4,1.01,.4,1.63,0,.86-.2,1.65-.59,2.38-.39,.73-.93,1.3-1.62,1.73-.69,.42-1.45,.64-2.3,.64-.95,0-1.71-.28-2.29-.83Zm4.33-.29c.57-.38,1.02-.89,1.34-1.53,.32-.63,.48-1.33,.48-2.07,0-.83-.25-1.46-.74-1.9s-1.12-.66-1.86-.66-1.39,.19-1.96,.57-1.01,.89-1.33,1.53c-.32,.64-.48,1.33-.48,2.06,0,.83,.25,1.47,.73,1.9,.49,.44,1.11,.66,1.85,.66s1.38-.19,1.95-.57Z"/>
    <path class="cls-1" d="M103.66,187.5c.47,.42,.7,1.03,.7,1.84,0,.25-.03,.53-.08,.84l-.78,4.45h-.62l.78-4.41c.05-.3,.07-.55,.07-.74,0-.67-.19-1.18-.56-1.53-.37-.35-.9-.53-1.57-.53-.78,0-1.46,.24-2.03,.73-.57,.49-.96,1.2-1.18,2.14l-.77,4.34h-.63l1.36-7.6h.63l-.28,1.6c.32-.57,.75-1,1.29-1.3s1.15-.45,1.8-.45c.77,0,1.4,.21,1.86,.62Z"/>
    <path class="cls-1" d="M112.28,184.27l-1.83,10.36h-.63l1.83-10.36h.63Z"/>
    <path class="cls-1" d="M113.83,193.92c-.57-.55-.86-1.3-.86-2.24,0-.86,.19-1.65,.58-2.38,.39-.73,.93-1.3,1.62-1.73,.69-.42,1.46-.64,2.31-.64,.62,0,1.16,.12,1.64,.37,.48,.25,.85,.6,1.11,1.06s.4,1.01,.4,1.63c0,.86-.2,1.65-.59,2.38-.39,.73-.93,1.3-1.62,1.73-.69,.42-1.45,.64-2.3,.64-.95,0-1.71-.28-2.29-.83Zm4.33-.29c.57-.38,1.02-.89,1.34-1.53,.32-.63,.48-1.33,.48-2.07,0-.83-.25-1.46-.74-1.9-.49-.44-1.12-.66-1.86-.66s-1.39,.19-1.96,.57-1.01,.89-1.33,1.53c-.32,.64-.48,1.33-.48,2.06,0,.83,.25,1.47,.74,1.9s1.11,.66,1.85,.66,1.38-.19,1.95-.57Z"/>
    <path class="cls-1" d="M122.31,194.19c-.46-.37-.67-.91-.61-1.6h.63c-.05,.5,.1,.89,.43,1.18,.33,.29,.82,.44,1.46,.44s1.19-.15,1.58-.44c.39-.29,.59-.67,.59-1.14,0-.28-.08-.51-.24-.7-.16-.19-.35-.34-.59-.45-.23-.11-.56-.24-.98-.39-.47-.16-.85-.31-1.14-.46s-.54-.36-.74-.62c-.2-.27-.3-.6-.3-1.01s.12-.76,.35-1.07c.23-.31,.55-.56,.97-.73,.41-.17,.87-.26,1.37-.26,.7,0,1.28,.18,1.75,.54,.47,.36,.7,.83,.7,1.42,0,.12,0,.21-.01,.28h-.62s.01-.12,.01-.22c0-.45-.18-.81-.54-1.08s-.81-.41-1.35-.41c-.58,0-1.06,.14-1.43,.41s-.57,.65-.57,1.11c0,.31,.08,.56,.25,.76,.17,.2,.38,.36,.62,.48,.25,.12,.58,.25,1,.4,.47,.16,.84,.31,1.11,.45,.28,.14,.51,.34,.71,.59s.29,.57,.29,.97c0,.65-.26,1.17-.79,1.55s-1.21,.57-2.05,.57c-.78,0-1.41-.19-1.87-.56Z"/>
    <path class="cls-1" d="M139.51,187.5c.47,.42,.7,1.03,.7,1.84,0,.25-.03,.53-.08,.84l-.78,4.45h-.62l.78-4.41c.05-.3,.07-.55,.07-.74,0-.67-.19-1.18-.56-1.53-.37-.35-.9-.53-1.57-.53-.82,0-1.52,.26-2.1,.79-.58,.53-.96,1.3-1.15,2.32h0s-.73,4.1-.73,4.1h-.63l1.83-10.36h.63l-.77,4.38c.32-.58,.75-1.02,1.31-1.32,.55-.3,1.16-.46,1.83-.46,.76,0,1.37,.21,1.83,.62Z"/>
    <path class="cls-1" d="M142.64,193.92c-.57-.55-.86-1.3-.86-2.24,0-.86,.19-1.65,.58-2.38,.39-.73,.93-1.3,1.62-1.73,.69-.42,1.46-.64,2.31-.64,.62,0,1.16,.12,1.64,.37,.48,.25,.85,.6,1.11,1.06,.27,.46,.4,1.01,.4,1.63,0,.86-.2,1.65-.59,2.38-.39,.73-.93,1.3-1.62,1.73-.69,.42-1.45,.64-2.3,.64-.95,0-1.72-.28-2.29-.83Zm4.33-.29c.57-.38,1.02-.89,1.34-1.53s.48-1.33,.48-2.07c0-.83-.25-1.46-.74-1.9-.5-.44-1.12-.66-1.86-.66s-1.39,.19-1.96,.57-1.01,.89-1.33,1.53c-.32,.64-.48,1.33-.48,2.06,0,.83,.25,1.47,.74,1.9s1.11,.66,1.86,.66,1.38-.19,1.95-.57Z"/>
    <path class="cls-1" d="M157.26,187.5c.47,.42,.7,1.03,.7,1.84,0,.25-.03,.53-.08,.84l-.78,4.45h-.62l.78-4.41c.05-.3,.07-.55,.07-.74,0-.67-.19-1.18-.56-1.53-.37-.35-.9-.53-1.57-.53-.78,0-1.46,.24-2.03,.73-.57,.49-.96,1.2-1.18,2.14l-.77,4.34h-.63l1.36-7.6h.63l-.28,1.6c.32-.57,.75-1,1.29-1.3s1.15-.45,1.8-.45c.78,0,1.4,.21,1.86,.62Z"/>
    <path class="cls-1" d="M165.9,187.52c.49,.39,.8,.88,.91,1.49l.35-1.97h.63l-1.39,7.84c-.13,.7-.39,1.31-.79,1.84s-.88,.93-1.46,1.22-1.18,.43-1.83,.43c-.95,0-1.7-.23-2.25-.69-.55-.46-.84-1.07-.89-1.85h.63c.08,.61,.34,1.09,.78,1.45s1.05,.54,1.82,.54c.53,0,1.03-.12,1.5-.36,.47-.24,.87-.58,1.2-1.02,.33-.44,.54-.96,.64-1.56l.39-2.23c-.33,.61-.81,1.11-1.44,1.5-.63,.4-1.35,.6-2.14,.6-.93,0-1.68-.27-2.23-.82-.56-.55-.83-1.29-.83-2.22,0-.28,.03-.57,.08-.88,.14-.78,.42-1.47,.83-2.06,.42-.59,.93-1.04,1.55-1.36s1.28-.48,1.99-.48c.79,0,1.44,.19,1.93,.58Zm.66,2.57c0-.79-.24-1.43-.71-1.9-.48-.47-1.11-.71-1.89-.71-.62,0-1.18,.13-1.7,.4-.52,.27-.95,.65-1.3,1.16-.35,.5-.59,1.1-.71,1.79-.05,.31-.07,.57-.07,.78,0,.81,.23,1.44,.69,1.9s1.09,.68,1.9,.68c.59,0,1.15-.14,1.67-.41,.53-.27,.97-.67,1.33-1.18s.6-1.1,.72-1.77c.05-.28,.07-.53,.07-.74Z"/>
    <path class="cls-1" d="M169.81,193.92c-.57-.55-.86-1.3-.86-2.24,0-.86,.19-1.65,.58-2.38s.93-1.3,1.62-1.73c.69-.42,1.46-.64,2.31-.64,.62,0,1.16,.12,1.64,.37,.48,.25,.85,.6,1.11,1.06,.27,.46,.4,1.01,.4,1.63,0,.86-.2,1.65-.59,2.38-.39,.73-.93,1.3-1.62,1.73-.69,.42-1.45,.64-2.3,.64-.95,0-1.71-.28-2.29-.83Zm4.33-.29c.57-.38,1.02-.89,1.34-1.53s.48-1.33,.48-2.07c0-.83-.25-1.46-.74-1.9-.5-.44-1.12-.66-1.86-.66s-1.39,.19-1.96,.57-1.01,.89-1.33,1.53c-.32,.64-.48,1.33-.48,2.06,0,.83,.24,1.47,.73,1.9s1.11,.66,1.86,.66,1.38-.19,1.95-.57Z"/>
    <path class="cls-1" d="M178.3,194.19c-.46-.37-.67-.91-.61-1.6h.63c-.05,.5,.1,.89,.43,1.18,.33,.29,.82,.44,1.46,.44s1.19-.15,1.58-.44c.39-.29,.59-.67,.59-1.14,0-.28-.08-.51-.24-.7-.16-.19-.35-.34-.59-.45-.23-.11-.56-.24-.98-.39-.47-.16-.85-.31-1.14-.46s-.54-.36-.74-.62-.3-.6-.3-1.01,.12-.76,.35-1.07,.56-.56,.97-.73c.41-.17,.87-.26,1.37-.26,.7,0,1.28,.18,1.75,.54s.7,.83,.7,1.42c0,.12,0,.21-.01,.28h-.62s.01-.12,.01-.22c0-.45-.18-.81-.54-1.08s-.81-.41-1.35-.41c-.58,0-1.06,.14-1.43,.41s-.57,.65-.57,1.11c0,.31,.08,.56,.25,.76,.17,.2,.38,.36,.62,.48,.25,.12,.58,.25,1,.4,.47,.16,.84,.31,1.11,.45,.28,.14,.51,.34,.71,.59,.2,.25,.29,.57,.29,.97,0,.65-.26,1.17-.79,1.55s-1.21,.57-2.05,.57c-.78,0-1.41-.19-1.87-.56Z"/>
  </g>
</svg>